<?xml version="1.0" encoding="UTF-8"?>
<svg xmlns="http://www.w3.org/2000/svg" version="1.1" viewBox="0 0 512 512">
  <defs>
    <style>
      .cls-1 {
        fill: none;
        stroke: #fff;
        stroke-linecap: round;
        stroke-miterlimit: 10;
        stroke-width: 69px;
      }

      .cls-2 {
        display: none;
      }
    </style>
  </defs>
  <!-- Generator: Adobe Illustrator 28.6.0, SVG Export Plug-In . SVG Version: 1.2.0 Build 709)  -->
  <g>
    <g id="Lager_1" class="cls-2">
      <path d="M240.1,130.8l101.5-101.6c39-39,102.2-39,141.1,0,38.9,39,39,102.2,0,141.1l-101.5,101.6,9.4,9.4c12.5,12.5,12.5,32.8,0,45.3s-32.8,12.5-45.3,0l-160-160c-12.5-12.5-12.5-32.8,0-45.3s32.8-12.5,45.3,0l9.4,9.4h0ZM176.2,202.6l45.3,45.3-72.2,72.1h85.5l29.4-29.4,45.3,45.3-120.8,120.7c-15,15-35.4,23.4-56.6,23.4h-42.4l-40,26.6c-12.7,8.5-29.6,6.8-40.4-4s-12.5-27.7-4-40.4l26.7-39.9v-42.4c0-21.2,8.4-41.6,23.4-56.6l120.7-120.7h.1Z"/>
    </g>
    <g id="Lager_2">
      <line class="cls-1" x1="86.8" y1="429.8" x2="429.3" y2="87.3"/>
    </g>
  </g>
</svg>